<svg xmlns="http://www.w3.org/2000/svg" xmlns:xlink="http://www.w3.org/1999/xlink" version="1.1" id="Layer_1" viewBox="0 0 512.008 512.008" xml:space="preserve">
<rect x="70.636" style="fill:#efefef;" width="370.72" height="494.344"/>
<rect x="105.78" y="94.8" style="fill:#b9dcd2;" width="300.264" height="117.944"/>
<g>
	<rect x="267.74" y="236.288" style="fill:#336699;" width="138.296" height="65.672"/>
	<rect x="267.74" y="393.2" style="fill:#336699;" width="138.296" height="65.672"/>
	<rect x="267.74" y="314.72" style="fill:#336699;" width="138.296" height="65.672"/>
</g>
<rect x="105.9" y="236.288" style="fill:#ffffff;" width="138.296" height="222.568"/>
<rect x="124.524" y="253.408" style="fill:#b9dcd2;" width="101.056" height="5.888"/>
<rect x="124.524" y="253.408" width="101.056" height="5.888" fill="#b9dcd2"/>
<g>
	<polyline style="fill:#b9dcd2;" points="225.58,268.616 225.58,274.496 124.524,274.496 124.524,268.616  "/>
	<rect x="124.524" y="283.816" style="fill:#b9dcd2;" width="101.056" height="5.888"/>
	<rect x="124.524" y="299.04" style="fill:#b9dcd2;" width="101.056" height="5.888"/>
</g>
<rect id="SVGCleanerId_0" x="124.524" y="314.24" style="fill:#b9dcd2;" width="101.056" height="5.888"/>
<g>
	<rect id="SVGCleanerId_0_1_" x="124.524" y="314.24" style="fill:#b9dcd2;" width="101.056" height="5.888"/>
</g>
<g>
	<rect x="124.524" y="329.44" style="fill:#b9dcd2;" width="101.056" height="5.888"/>
	<rect x="124.524" y="344.64" style="fill:#b9dcd2;" width="101.056" height="5.888"/>
	<rect x="124.524" y="359.832" style="fill:#b9dcd2;" width="101.056" height="5.888"/>
</g>
<rect id="SVGCleanerId_1" x="124.524" y="375.032" style="fill:#b9dcd2;" width="101.056" height="5.888"/>
<g>
	<rect id="SVGCleanerId_1_1_" x="124.524" y="375.032" style="fill:#b9dcd2;" width="101.056" height="5.888"/>
</g>
<g>
	<rect x="124.524" y="390.24" style="fill:#b9dcd2;" width="101.056" height="5.888"/>
	<rect x="124.524" y="405.44" style="fill:#b9dcd2;" width="101.056" height="5.888"/>
	<rect x="124.524" y="420.648" style="fill:#b9dcd2;" width="101.056" height="5.888"/>
	<rect x="124.524" y="435.84" style="fill:#b9dcd2;" width="101.056" height="5.888"/>
</g>
<rect x="70.66" y="494.352" width="370.72" height="17.656" fill="#b9dcd2"/>
<rect x="70.628" style="fill:#336699;" width="370.72" height="59.488"/>
<g>
	<rect x="105.9" y="21.616" style="fill:#ffffff;" width="110.072" height="5.888"/>
	<rect x="105.9" y="31.992" style="fill:#ffffff;" width="84.296" height="5.888"/>
	<rect x="268.476" y="31.992" style="fill:#ffffff;" width="21.6" height="5.888"/>
</g>
<rect x="297.492" y="31.992" width="21.6" height="5.888" fill="#b9dcd2"/>
<rect x="326.46" y="31.992" style="fill:#ffffff;" width="21.6" height="5.888"/>
<rect x="355.492" y="31.992" width="21.6" height="5.888" fill="#b9dcd2"/>
<rect x="384.452" y="31.992" style="fill:#ffffff;" width="21.6" height="5.888"/>
</svg>