<svg version="1.2" xmlns="http://www.w3.org/2000/svg" viewBox="0 0 1561 541" width="1561" height="541">
	<title>jamf-svg</title>
	<style>
		.s0 { fill: #778eb1 } 
		.s1 { fill: #454545 } 
	</style>
	<path id="Layer" class="s0" d="m393.4 68.5c11.6 0 20.2 8.7 20.2 20.2v296.1c0 11.6-9.6 21.2-21.2 21.2h-372.2c-11.5 0-20.2-8.7-20.2-19.3v-58.8c0-11.6 9.6-21.2 21.2-21.2h91.6c39.5 0 61.7-15.5 75.2-53.1l36.7-114.7c14.4-48.2 46.2-70.4 99.3-70.4zm-371.2-67.5h177.4c14.4 0 25 12.5 22.1 27-7.7 37.6-21.2 102.2-21.2 102.2-13.5 63.7-63.6 71.4-99.3 71.4h-79c-12.6 0-22.2-9.7-22.2-22.2v-156.2c0-11.6 10.6-22.2 22.2-22.2z"/>
	<path id="Layer" fill-rule="evenodd" class="s1" d="m1474.3 129.3c0-53.1 35.6-78.2 85.8-80.1v43.4h-8.7c-22.2 0-33.8 18.3-33.8 40.5v34.7h40.5v38.6h-40.5v214.1h-43.3v-215.1h-37.6v-38.5h37.6zm-150.5 138.8c0-43.4-25-62.7-54.9-62.7-35.7 0-62.7 23.2-62.7 64.6v152.4h-43.4v-154.3c0-43.4-25-62.7-54.9-62.7-35.7 0-62.7 23.2-62.7 64.6v152.4h-42.4v-251.7h43.4v29.9h0.9c11.6-26 42.4-35.7 68.5-35.7 25 0 53 6.8 73.3 43.4 15.4-31.8 48.2-43.4 80.9-43.4 54 0 95.5 32.8 95.5 98.4v159.1h-43.4v-154.3zm-454.1-14.5c0-41.4-41.5-51.1-74.3-51.1-23.1 0-45.3 5.8-68.4 17.4l-19.3-35.7c37.6-16.4 67.5-19.3 89.7-19.3 59.7 0 115.7 26.1 115.7 85.9v171.6h-40.5v-27c-22.2 23.1-46.3 32.8-79.1 32.8-60.7 0-108.9-33.8-108.9-90.7 0-46.2 38.5-86.7 107.9-86.7 26.1 0 54 7.7 77.2 28.9zm-68.5 35.7c-53 0-70.4 26-70.4 50.1 0 24.1 17.4 50.1 70.4 50.1 53.1 0 70.4-26 70.4-50.1 0-24.1-18.3-50.1-70.4-50.1zm-198.6-169.8c-16.5 0-29.9-13.5-29.9-30.3 0-16.8 13.4-30.4 29.9-30.4 16.5 0 29.9 13.6 29.9 30.4 0 16.8-13.4 30.3-29.9 30.3zm-20.3 49.2h43.4l1 284.5c0 65.6-42.4 87.7-89.7 87.7h-16.4v-40.5h16.4c42.5 0 46.3-23.1 46.3-45.3z"/>
</svg>