<svg xmlns="http://www.w3.org/2000/svg" xmlns:xlink="http://www.w3.org/1999/xlink" height="800px" width="800px" version="1.1" id="Layer_1" viewBox="0 0 512 512" xml:space="preserve">
<polygon style="fill:#b9dcd2;" points="39.171,192.008 39.171,187.217 209.852,14.876 209.852,192.008 "/>
<g>
	<path style="fill:#336699;" d="M472.829,512H39.171c-8.214,0-14.876-6.66-14.876-14.876V286.686   c0-8.216,6.661-14.876,14.876-14.876s14.876,6.66,14.876,14.876v195.562h403.905V291.073c0-8.216,6.661-14.876,14.876-14.876   c8.214,0,14.876,6.66,14.876,14.876v206.051C487.705,505.34,481.043,512,472.829,512z"/>
	<path style="fill:#336699;" d="M472.829,0H209.852c-0.181,0-0.36,0.021-0.541,0.027c-0.168,0.006-0.333,0.013-0.501,0.025   c-0.643,0.045-1.281,0.118-1.907,0.244c-0.012,0.003-0.024,0.007-0.037,0.009c-0.619,0.126-1.224,0.305-1.819,0.509   c-0.155,0.054-0.308,0.109-0.461,0.167c-0.586,0.222-1.162,0.469-1.717,0.763c-0.018,0.009-0.037,0.016-0.055,0.025   c-0.57,0.306-1.113,0.662-1.641,1.043c-0.132,0.095-0.263,0.193-0.393,0.293c-0.524,0.403-1.031,0.829-1.499,1.303L28.602,176.748   c-0.35,0.353-0.678,0.723-0.989,1.105c-0.201,0.247-0.376,0.504-0.558,0.76c-0.098,0.138-0.207,0.271-0.3,0.414   c-0.211,0.32-0.397,0.649-0.582,0.98c-0.049,0.089-0.107,0.174-0.155,0.265c-0.181,0.342-0.339,0.693-0.491,1.046   c-0.039,0.089-0.085,0.176-0.122,0.265c-0.138,0.336-0.253,0.68-0.364,1.023c-0.037,0.116-0.085,0.229-0.119,0.347   c-0.094,0.317-0.167,0.638-0.24,0.959c-0.034,0.152-0.079,0.301-0.109,0.454c-0.058,0.298-0.094,0.598-0.134,0.898   c-0.024,0.18-0.058,0.359-0.074,0.539c-0.028,0.298-0.034,0.597-0.045,0.896c-0.006,0.173-0.025,0.344-0.025,0.518v4.792   c0,8.216,6.661,14.876,14.876,14.876h170.681c8.215,0,14.876-6.66,14.876-14.876V29.752h233.223v159.912   c0,8.216,6.661,14.876,14.876,14.876c8.214,0,14.876-6.66,14.876-14.876V14.876C487.705,6.66,481.043,0,472.829,0z M70.095,177.132   L194.976,51.038v126.094H70.095z"/>
</g>
<polygon style="fill:#b9dcd2;" points="302.594,433.878 199.468,270.143 111.226,433.878 "/>
<path style="fill:#336699;" d="M413.913,426.905l-71.439-134.633c-2.535-4.778-7.466-7.805-12.874-7.902  c-5.349-0.067-10.444,2.751-13.149,7.436l-18.254,31.619c-4.109,7.115-1.671,16.213,5.445,20.321  c7.118,4.109,16.215,1.669,20.321-5.445l4.823-8.354l47.255,89.055h-65.232l-98.751-156.786c-2.819-4.475-7.777-7.108-13.092-6.94  c-5.287,0.178-10.081,3.152-12.591,7.81L98.132,426.82c-2.484,4.61-2.362,10.187,0.323,14.684c2.685,4.496,7.535,7.251,12.772,7.251  h142.58h48.789h98.178c5.22,0,10.058-2.736,12.747-7.209C416.211,437.071,416.361,431.515,413.913,426.905z M253.806,419.002  H136.143l64.325-119.359l75.177,119.359H253.806z"/>
<circle style="fill:#b9dcd2;" cx="327.285" cy="189.668" r="51.908"/>
<path style="fill:#336699;" d="M327.29,256.448c-36.825,0-66.784-29.959-66.784-66.784s29.959-66.786,66.784-66.786  s66.785,29.96,66.785,66.786S364.115,256.448,327.29,256.448z M327.29,152.632c-20.42,0-37.032,16.612-37.032,37.034  c0,20.42,16.612,37.032,37.032,37.032c20.42,0,37.034-16.612,37.034-37.032C364.322,169.244,347.709,152.632,327.29,152.632z"/>
</svg>