<?xml version="1.0" encoding="iso-8859-1"?>
<!-- Uploaded to: SVG Repo, www.svgrepo.com, Generator: SVG Repo Mixer Tools -->
<svg version="1.1" id="Layer_1" xmlns="http://www.w3.org/2000/svg" xmlns:xlink="http://www.w3.org/1999/xlink" 
	 viewBox="0 0 512 512" xml:space="preserve">
<g>
	<rect x="247.984" y="211.128" style="fill:#CCCCCC;" width="16" height="153.52"/>
	<polygon style="fill:#CCCCCC;" points="445.448,364.656 429.448,364.656 429.448,296.024 82.536,296.024 82.536,364.656 
		66.536,364.656 66.536,280.024 445.448,280.024 	"/>
</g>
<rect x="197.728" y="395.44" style="fill:#BBBBBB;" width="116.536" height="116.536"/>
<rect x="403.44" y="403.44" style="fill:#FFFFFF;" width="100.536" height="100.536"/>
<path style="fill:#E21B1B;" d="M496,411.464V496h-84.536v-84.536H496 M512,395.464H395.464V512H512V395.464z"/>
<rect x="8" y="403.44" style="fill:#FFFFFF;" width="100.528" height="100.536"/>
<path style="fill:#E21B1B;" d="M100.536,411.464V496H16v-84.536H100.536 M116.536,395.464H0V512h116.536V395.464z"/>
<rect x="173.84" y="8" style="fill:#FFFFFF;" width="164.32" height="164.328"/>
<path style="fill:#E21B1B;" d="M330.16,16v148.32H181.84V16H330.16 M346.16,0H165.84v180.32h180.32V0z"/>
</svg>